<?xml version="1.0" standalone="no"?>
<!DOCTYPE svg PUBLIC "-//W3C//DTD SVG 20010904//EN"
 "http://www.w3.org/TR/2001/REC-SVG-20010904/DTD/svg10.dtd">
<svg version="1.0" xmlns="http://www.w3.org/2000/svg"
 width="700.000000pt" height="700.000000pt" viewBox="0 0 700.000000 700.000000"
 preserveAspectRatio="xMidYMid meet">
<metadata>
Created by potrace 1.11, written by Peter Selinger 2001-2013
</metadata>
<g transform="translate(0.000000,700.000000) scale(0.100000,-0.100000)"
fill="#000000" stroke="none">
<path d="M3407 5393 c-4 -32 -13 -121 -22 -198 -9 -77 -18 -165 -22 -196 l-6
-56 33 -6 c18 -4 45 -7 60 -7 26 0 28 3 34 63 16 155 19 178 26 182 5 3 43
-34 85 -82 42 -49 101 -116 132 -150 72 -83 83 -82 83 7 0 39 4 78 9 88 9 17
37 350 30 356 -2 2 -28 7 -56 11 l-53 7 0 -44 c-1 -52 -23 -204 -31 -212 -3
-3 -46 42 -95 100 -191 228 -197 232 -207 137z"/>
<path d="M3109 5436 c-3 -4 -78 -16 -165 -27 -87 -11 -162 -23 -165 -27 -4 -4
-3 -34 2 -67 14 -90 38 -251 49 -325 15 -106 12 -104 94 -96 39 3 94 11 121
16 28 5 71 12 98 15 47 6 47 7 47 43 0 65 -5 67 -120 53 -65 -8 -106 -9 -112
-3 -11 11 -29 83 -22 93 2 4 38 10 80 14 l75 7 -3 47 -3 46 -45 -5 c-107 -9
-113 -8 -124 29 -13 46 5 57 103 66 43 4 83 10 90 14 8 5 11 27 9 60 -2 29 -6
50 -9 47z"/>
<path d="M2362 5255 c-85 -35 -166 -66 -180 -70 -54 -13 -62 -32 -38 -90 l14
-34 69 29 c45 19 71 25 79 19 6 -5 42 -85 79 -177 37 -92 71 -171 75 -176 13
-13 100 26 100 46 0 9 -15 49 -34 90 -19 40 -49 115 -67 167 l-33 94 30 23
c16 13 44 29 62 35 17 6 32 15 32 21 0 19 -23 88 -29 87 -3 0 -75 -29 -159
-64z"/>
<path d="M4455 5113 c-22 -37 -42 -72 -44 -77 -2 -6 -39 -72 -83 -147 -43 -75
-78 -141 -78 -147 0 -6 53 -40 119 -76 108 -61 123 -66 177 -66 51 0 65 4 93
28 26 22 34 37 38 74 3 26 0 61 -6 79 -11 31 -9 34 24 61 72 60 69 157 -8 223
-23 20 -52 41 -65 46 -13 5 -43 23 -67 39 -24 17 -47 30 -52 30 -5 0 -27 -30
-48 -67z m140 -104 c39 -34 43 -53 18 -81 -21 -23 -61 -23 -93 2 l-25 19 23
45 c12 25 26 46 32 46 5 0 25 -14 45 -31z m-97 -175 c85 -47 97 -68 66 -112
-21 -30 -49 -28 -112 9 -41 23 -52 34 -47 47 4 9 10 26 13 37 5 20 21 45 29
45 2 0 25 -12 51 -26z"/>
<path d="M1836 4987 l-38 -33 79 -99 c116 -147 125 -162 127 -206 0 -31 -6
-45 -34 -74 -48 -50 -93 -49 -141 3 -27 28 -183 228 -195 250 -1 2 -25 -13
-52 -34 l-51 -37 52 -69 c101 -134 149 -189 189 -219 37 -26 49 -29 115 -29
108 0 181 44 217 132 42 101 9 188 -131 347 -24 26 -43 53 -43 58 0 12 -33 43
-46 43 -5 0 -26 -15 -48 -33z"/>
<path d="M4952 4718 c-50 -57 -126 -143 -168 -192 l-78 -89 37 -33 c20 -19 43
-34 51 -34 8 0 39 28 68 62 29 33 86 97 127 142 40 45 89 100 109 124 l35 43
-38 39 c-22 22 -42 40 -45 40 -4 0 -48 -46 -98 -102z"/>
<path d="M5280 4500 c-30 -22 -74 -55 -97 -73 -23 -18 -87 -66 -142 -107 -55
-41 -100 -79 -100 -84 -2 -19 51 -76 70 -76 11 0 59 29 107 65 48 35 90 61 94
57 7 -7 -27 -162 -43 -193 -4 -9 -11 -34 -14 -55 -4 -22 -9 -46 -11 -55 -5
-19 65 -114 76 -102 4 4 24 71 45 148 21 77 43 146 48 153 7 8 49 12 149 12
l139 0 -13 21 c-7 12 -18 29 -23 39 -29 50 -31 50 -171 50 -73 0 -135 4 -138
9 -6 9 37 50 108 104 20 15 36 35 36 43 0 15 -50 84 -60 84 -3 0 -30 -18 -60
-40z"/>
<path d="M3555 4457 c-11 -23 -32 -60 -46 -82 -15 -22 -50 -85 -79 -140 -74
-140 -114 -214 -163 -298 -24 -40 -60 -105 -80 -145 -19 -40 -44 -84 -55 -100
-11 -15 -34 -54 -51 -87 -17 -33 -39 -73 -49 -90 -34 -58 -132 -242 -132 -248
0 -4 86 -8 192 -9 l192 -3 9 -44 c6 -32 4 -61 -7 -107 -9 -35 -16 -76 -16 -92
0 -15 -4 -32 -9 -37 -8 -10 -29 -103 -38 -178 -3 -20 -9 -40 -14 -43 -5 -3 -9
-20 -9 -39 0 -19 -5 -46 -11 -62 -6 -15 -20 -75 -30 -133 -28 -157 -37 -198
-49 -219 -5 -11 -10 -28 -9 -38 0 -10 13 7 29 37 16 30 36 69 44 85 9 17 24
44 34 60 10 17 34 57 52 90 31 58 170 302 224 395 14 25 44 79 66 120 22 41
44 82 50 90 15 25 132 232 153 273 11 21 29 42 40 46 14 5 17 10 8 15 -9 6 -7
16 7 39 10 18 21 42 24 53 5 19 0 22 -36 28 -22 3 -124 9 -226 12 -102 4 -195
11 -207 15 -24 9 -32 46 -14 64 5 6 25 71 46 145 20 74 41 146 45 160 5 14 16
54 25 90 23 92 46 159 56 166 5 3 9 22 9 42 0 20 12 73 25 116 29 90 29 114 0
53z"/>
<path d="M1204 4399 c-3 -6 -1 -30 6 -53 17 -55 17 -56 40 -91 11 -16 22 -37
26 -45 17 -43 31 -66 46 -80 15 -14 37 -51 106 -182 14 -27 31 -48 38 -48 7 0
24 14 39 32 21 25 26 39 22 65 -5 27 0 40 24 67 16 19 29 38 29 43 0 19 67 73
91 73 19 0 34 12 58 46 18 25 30 48 28 50 -2 2 -35 11 -73 20 -38 9 -96 25
-129 36 -33 11 -85 23 -115 28 -30 4 -71 14 -90 22 -50 21 -137 31 -146 17z
m301 -175 c31 -20 31 -27 -2 -70 l-26 -35 -29 27 c-34 33 -36 57 -6 78 28 20
33 20 63 0z"/>
<path d="M2545 4363 c-16 -3 -34 -9 -39 -14 -6 -5 -18 -9 -29 -9 -38 0 -129
-55 -180 -109 -35 -37 -70 -91 -103 -156 l-49 -100 0 -120 c0 -110 2 -125 28
-180 15 -33 47 -80 70 -105 87 -92 85 -86 36 -111 -66 -33 -117 -78 -164 -144
-75 -105 -80 -125 -80 -335 l0 -185 42 -85 c31 -64 58 -101 105 -147 69 -66
116 -93 222 -129 66 -23 83 -24 327 -24 l258 0 10 53 c14 64 31 168 31 185 0
9 -59 12 -260 12 -243 0 -264 1 -301 20 -53 27 -117 86 -135 124 -8 17 -24 47
-35 66 -16 30 -19 48 -15 119 8 140 54 228 150 289 38 24 51 26 183 30 l142 4
10 27 c6 14 17 37 25 51 9 14 36 62 60 108 l45 82 -137 0 c-75 0 -154 5 -175
11 -43 12 -97 56 -139 113 -27 37 -28 44 -28 146 0 119 8 145 62 197 63 61 76
63 411 63 l304 0 30 58 c17 31 48 90 71 130 l40 72 -381 -1 c-210 -1 -395 -4
-412 -6z"/>
<path d="M3683 4248 c-29 -68 -53 -127 -53 -131 0 -5 107 -7 239 -5 l239 3 56
-39 c31 -21 56 -44 56 -52 0 -7 9 -28 20 -46 27 -47 38 -213 17 -255 -26 -49
-110 -120 -158 -133 -86 -22 -107 -33 -123 -64 -27 -53 -86 -160 -102 -183 -7
-12 -14 -24 -14 -27 0 -2 78 -6 173 -8 166 -3 173 -4 213 -30 59 -38 130 -121
148 -175 9 -26 16 -79 16 -119 0 -96 -37 -180 -108 -246 -84 -79 -79 -78 -467
-78 l-343 0 -21 -42 c-11 -24 -39 -77 -61 -118 -22 -41 -40 -81 -40 -87 0 -10
93 -13 429 -13 237 0 432 4 435 9 3 4 33 16 68 26 76 21 118 47 200 124 63 59
97 112 141 226 28 73 35 267 12 355 -32 126 -120 254 -204 297 -20 10 -46 24
-59 32 l-23 14 55 56 c34 35 65 79 81 116 14 33 30 68 36 77 14 26 11 176 -5
233 -32 119 -64 178 -139 253 -39 39 -75 72 -79 72 -4 0 -24 11 -44 25 -20 14
-49 25 -63 25 -15 0 -33 6 -39 13 -9 8 -72 13 -225 15 l-212 3 -52 -123z"/>
<path d="M5705 3912 c-6 -5 -37 -19 -70 -31 -62 -24 -89 -34 -140 -56 -16 -6
-70 -28 -120 -48 -78 -30 -90 -38 -87 -57 4 -40 120 -305 133 -307 8 -2 31 5
51 15 l37 17 -41 104 -42 104 28 23 c30 26 58 31 73 12 5 -7 20 -38 32 -68 13
-30 25 -56 26 -58 2 -2 19 4 39 12 43 18 45 33 15 108 l-20 52 23 18 c13 10
31 18 40 18 15 0 48 -49 48 -74 1 -6 9 -29 20 -51 11 -22 19 -46 20 -53 0 -7
6 -15 14 -18 15 -6 96 27 96 39 0 4 -8 24 -18 45 -11 20 -36 80 -56 132 -21
52 -41 102 -45 110 -9 18 -42 25 -56 12z"/>
<path d="M943 3884 c-17 -8 -38 -23 -46 -32 -17 -18 -97 -198 -97 -216 0 -7
30 -24 68 -40 37 -16 81 -35 97 -43 17 -8 59 -26 95 -40 36 -14 93 -39 128
-54 34 -16 66 -29 70 -29 7 0 22 31 42 85 12 33 19 51 45 110 9 22 20 67 22
100 l5 60 -47 44 c-45 41 -49 43 -96 39 -28 -3 -58 -13 -69 -23 -20 -18 -21
-18 -55 15 -41 40 -110 51 -162 24z m99 -121 c22 -20 23 -46 2 -78 -19 -29
-53 -32 -90 -9 -28 19 -25 44 9 82 24 26 53 28 79 5z m218 -28 c15 -18 -2 -98
-29 -134 -17 -22 -21 -23 -54 -12 -53 18 -58 30 -37 76 11 22 19 45 20 51 1
33 76 48 100 19z"/>
<path d="M825 2950 c-4 -7 -16 -10 -26 -7 -10 3 -22 1 -25 -5 -3 -5 -14 -8
-24 -5 -11 3 -21 -2 -24 -10 -4 -9 -13 -12 -25 -8 -12 3 -21 0 -25 -10 -3 -9
-10 -14 -16 -10 -10 6 -50 -29 -50 -45 0 -5 -6 -13 -13 -17 -18 -12 -72 -128
-68 -147 1 -5 -1 -16 -5 -25 -10 -25 -13 -71 -4 -76 5 -3 6 -14 3 -24 -3 -10
0 -22 6 -25 5 -4 8 -13 4 -21 -3 -9 0 -22 7 -30 6 -8 9 -18 6 -24 -3 -5 1 -11
9 -15 8 -3 15 -12 15 -19 0 -8 7 -20 15 -27 9 -7 13 -15 11 -17 -6 -6 32 -43
44 -43 5 0 13 -6 17 -13 10 -16 43 -31 61 -28 8 1 20 -3 29 -10 20 -17 197
-17 217 0 8 7 19 10 24 7 6 -3 15 1 22 9 7 8 16 12 21 9 16 -9 100 90 132 156
32 66 44 160 24 187 -5 7 -6 17 -2 23 4 6 1 17 -5 25 -6 8 -9 19 -6 24 8 12
-13 52 -31 64 -7 4 -13 12 -13 17 0 12 -63 75 -84 83 -9 4 -16 11 -16 16 0 6
-6 8 -14 5 -7 -3 -29 3 -47 14 -20 11 -51 18 -74 16 -22 -1 -45 3 -52 8 -7 6
-14 5 -18 -2z"/>
<path d="M5595 2927 c-22 -11 -51 -25 -64 -31 -29 -13 -85 -67 -94 -90 -4 -9
-11 -16 -16 -16 -6 0 -8 -7 -5 -15 4 -8 -1 -17 -10 -21 -9 -3 -13 -10 -10 -15
3 -6 0 -16 -6 -24 -6 -8 -9 -19 -5 -25 4 -6 3 -16 -2 -23 -11 -14 -9 -103 2
-129 4 -9 4 -21 1 -27 -8 -12 30 -83 50 -94 8 -4 14 -12 14 -17 0 -13 37 -50
50 -50 5 0 13 -6 17 -12 12 -19 93 -59 104 -52 6 3 16 0 24 -6 8 -6 19 -9 25
-5 6 4 17 2 25 -5 9 -8 15 -8 20 0 4 6 15 8 25 5 10 -3 21 -1 25 5 4 6 13 9
21 6 8 -3 30 3 50 14 19 11 39 18 44 15 10 -6 80 60 80 76 0 5 7 12 15 15 8 4
15 13 15 20 0 8 7 17 15 20 8 4 13 10 10 15 -3 4 -1 16 4 26 25 48 36 147 19
170 -5 7 -7 17 -3 23 4 6 1 17 -5 25 -6 8 -9 18 -6 24 3 5 -1 11 -9 15 -8 3
-15 14 -15 25 0 10 -11 29 -25 42 -13 13 -25 27 -25 32 0 11 -33 41 -60 53
-14 6 -44 21 -67 32 -26 13 -45 17 -49 11 -3 -6 -11 -6 -17 -1 -15 10 -67 10
-85 -2 -7 -4 -18 -4 -25 2 -8 6 -26 2 -52 -11z"/>
<path d="M360 1720 l0 -170 120 0 120 0 0 35 0 34 -77 3 -78 3 0 35 0 35 53 3
c50 3 52 4 52 32 0 28 -2 29 -52 32 -51 3 -53 4 -53 33 l0 30 73 3 72 3 0 29
0 30 -115 0 -115 0 0 -170z"/>
<path d="M1120 1719 l0 -171 110 4 c98 3 112 5 132 26 30 30 32 100 3 132 -16
17 -19 33 -17 71 3 43 0 52 -26 79 -29 29 -34 30 -116 30 l-86 0 0 -171z m154
89 c18 -29 -4 -53 -50 -53 -33 0 -39 3 -42 23 -6 41 5 53 44 50 22 -2 42 -10
48 -20z m40 -140 c8 -13 6 -22 -9 -38 -15 -17 -28 -20 -64 -18 -39 3 -46 6
-49 26 -7 45 4 53 59 50 36 -2 55 -8 63 -20z"/>
<path d="M1590 1720 l0 -170 40 0 40 0 0 170 0 170 -40 0 -40 0 0 -170z"/>
<path d="M1890 1720 l0 -170 35 0 35 0 0 79 c0 44 4 82 9 85 5 4 39 -32 76
-79 63 -81 68 -85 106 -85 21 0 39 4 39 9 0 5 -27 44 -60 87 -33 43 -59 81
-57 84 17 32 47 79 70 107 15 20 27 40 27 44 0 5 -18 9 -39 9 -37 0 -43 -4
-75 -52 -83 -122 -96 -125 -96 -17 l0 69 -35 0 -35 0 0 -170z"/>
<path d="M2400 1720 l0 -170 115 0 115 0 0 30 0 29 -77 3 -78 3 0 40 0 40 53
3 c47 3 52 5 52 27 0 22 -5 24 -52 27 -51 3 -53 4 -53 33 l0 30 78 3 77 3 0
34 0 35 -115 0 -115 0 0 -170z"/>
<path d="M3080 1884 c0 -4 25 -51 55 -107 50 -92 55 -105 55 -163 l0 -64 35 0
35 0 0 59 c0 60 7 77 83 213 15 26 27 49 27 52 0 3 -18 6 -39 6 -38 0 -41 -2
-66 -55 -14 -30 -30 -55 -35 -55 -5 0 -24 27 -42 60 -31 57 -35 60 -70 60 -21
0 -38 -3 -38 -6z"/>
<path d="M3646 1880 c-65 -21 -96 -73 -96 -163 0 -76 25 -122 80 -149 51 -26
141 -24 198 5 59 29 75 67 70 159 -3 65 -6 71 -45 109 -39 39 -44 42 -109 45
-38 2 -82 -1 -98 -6z m158 -91 c19 -22 26 -42 26 -74 0 -37 -5 -47 -37 -75
-31 -28 -42 -31 -76 -27 -90 12 -129 108 -71 176 23 27 32 31 79 31 47 0 56
-4 79 -31z"/>
<path d="M4110 1770 c0 -131 9 -162 56 -199 21 -17 41 -21 93 -21 78 1 105 13
131 63 17 31 20 56 20 157 l0 120 -40 0 -40 0 0 -119 c0 -117 -1 -120 -26
-140 -15 -12 -34 -21 -44 -21 -10 0 -29 9 -44 21 -25 20 -26 23 -26 140 l0
119 -40 0 -40 0 0 -120z"/>
<path d="M4630 1720 l0 -170 34 0 35 0 3 53 c3 45 6 52 25 55 17 3 33 -10 65
-52 39 -50 47 -56 81 -56 20 0 37 3 37 6 0 4 -16 26 -35 50 -19 23 -35 47 -35
53 0 5 11 27 25 47 38 56 34 98 -14 145 l-39 39 -91 0 -91 0 0 -170z m168 88
c16 -16 15 -53 -2 -67 -8 -7 -32 -11 -53 -9 -33 3 -38 6 -41 31 -2 16 -1 35 2
43 7 17 77 19 94 2z"/>
<path d="M5152 1880 c-25 -10 -42 -47 -42 -89 0 -32 51 -86 92 -96 14 -4 36
-17 49 -31 19 -20 20 -26 9 -40 -10 -11 -23 -14 -47 -10 -84 15 -99 16 -113 7
-13 -9 -11 -15 12 -38 24 -23 38 -28 98 -31 66 -4 71 -3 100 26 22 22 30 40
30 65 0 44 -21 68 -87 102 -65 33 -80 50 -63 70 15 18 61 20 77 4 16 -16 43
-3 43 20 0 11 -10 27 -22 35 -24 17 -99 20 -136 6z"/>
<path d="M5550 1720 l0 -170 115 0 115 0 0 30 0 29 -77 3 -78 3 0 40 0 40 53
3 c50 3 52 4 52 32 0 28 -2 29 -52 32 -49 3 -53 5 -53 28 0 24 2 25 78 28 l77
3 0 34 0 35 -115 0 -115 0 0 -170z"/>
<path d="M5990 1720 l0 -170 110 0 110 0 0 35 0 34 -67 3 -68 3 -3 133 -3 132
-39 0 -40 0 0 -170z"/>
<path d="M6410 1715 l0 -175 40 0 40 0 0 60 0 60 60 0 60 0 0 40 0 39 -57 3
-58 3 0 35 0 35 73 3 72 3 0 34 0 35 -115 0 -115 0 0 -175z"/>
<path d="M790 1730 l0 -30 60 0 60 0 0 30 0 30 -60 0 -60 0 0 -30z"/>
</g>
</svg>
